<svg preserveAspectRatio="none" overflow="visible" style="display: block;" width="16.4363" height="16.4363" viewBox="0 0 16.4363 16.4363" fill="none" xmlns="http://www.w3.org/2000/svg">
<g id="Icon">
<path id="Vector" d="M7.03209 14.3817C7.15231 14.5899 7.32522 14.7628 7.53343 14.883C7.74164 15.0032 7.97783 15.0665 8.21825 15.0665C8.45866 15.0665 8.69485 15.0032 8.90306 14.883C9.11127 14.7628 9.28418 14.5899 9.4044 14.3817" stroke="#E5E5E5" stroke-width="1.23272" stroke-linecap="round" stroke-linejoin="round"/>
<path id="Vector_2" d="M2.23431 10.4959C2.14484 10.594 2.0858 10.7159 2.06437 10.8469C2.04293 10.9779 2.06003 11.1123 2.11357 11.2338C2.16712 11.3552 2.25481 11.4585 2.36597 11.5311C2.47714 11.6036 2.60699 11.6423 2.73972 11.6424H13.6972C13.83 11.6424 13.9598 11.6039 14.0711 11.5315C14.1823 11.4591 14.2701 11.3559 14.3238 11.2345C14.3775 11.1132 14.3947 10.9788 14.3735 10.8478C14.3522 10.7168 14.2933 10.5948 14.204 10.4966C13.2932 9.5577 12.3275 8.55988 12.3275 5.47876C12.3275 4.38897 11.8946 3.34381 11.124 2.57321C10.3534 1.80261 9.30827 1.36969 8.21848 1.36969C7.12869 1.36969 6.08353 1.80261 5.31293 2.57321C4.54233 3.34381 4.10941 4.38897 4.10941 5.47876C4.10941 8.55988 3.1431 9.5577 2.23431 10.4959Z" stroke="#E5E5E5" stroke-width="1.23272" stroke-linecap="round" stroke-linejoin="round"/>
</g>
</svg>
