<svg preserveAspectRatio="none" overflow="visible" style="display: block;" width="96.9931" height="9.60465" viewBox="0 0 96.9931 9.60465" fill="none" xmlns="http://www.w3.org/2000/svg">
<g id="Group">
<path id="Vector" d="M1.48072 9.38578H0C1.3184 7.01729 2.63681 4.64881 3.95521 2.28033L8.16217 9.46859H6.23757C5.9295 8.91871 5.62474 8.36883 5.31667 7.81894C4.74691 7.69306 4.17384 7.56387 3.60408 7.43799C4.02146 7.24917 4.43553 7.05704 4.85292 6.86823C4.55147 6.25209 4.24671 5.63595 3.94527 5.0165C3.12375 6.47072 2.30224 7.92826 1.48072 9.38247V9.38578Z" fill="white"/>
<path id="Vector_2" d="M64.0172 9.38578H62.5365C63.8549 7.01729 65.1733 4.64881 66.4917 2.28033L70.6987 9.46859H68.7741C68.466 8.91871 68.1613 8.36883 67.8532 7.81894C67.2834 7.69306 66.7104 7.56387 66.1406 7.43799C66.558 7.24917 66.9721 7.05704 67.3894 6.86823C67.088 6.25209 66.7832 5.63595 66.4818 5.0165C65.6603 6.47072 64.8388 7.92826 64.0172 9.38247V9.38578Z" fill="white"/>
<path id="Vector_3" d="M17.7084 2.45016H16.3138V9.45955H22.1407V8.23391H17.8575C17.8078 6.30599 17.7581 4.37807 17.7084 2.45016Z" fill="white"/>
<path id="Vector_4" d="M32.4022 5.02598C31.8921 5.02598 31.382 5.0293 30.8751 5.03262V2.53825C32.7368 2.51506 34.5951 2.49187 36.4568 2.46868C37.2916 2.843 37.8315 3.67114 37.8382 4.5821C37.8448 5.50631 37.3015 6.3477 36.4568 6.72865H32.5513V9.57414H30.7493V5.53281H35.8539C35.897 5.50299 36.3674 5.15517 36.3607 4.53904C36.3541 3.93615 35.9003 3.59827 35.8539 3.56514C34.6978 3.56514 33.5418 3.55851 32.3824 3.5552C32.389 4.04546 32.3956 4.53572 32.4022 5.02598Z" fill="white"/>
<path id="Vector_5" d="M48.268 5.28506V2.43626H46.9694V9.5119H48.3276V6.74922H52.4219V9.60465H54.065V2.51907H52.5014C52.4981 3.45322 52.4915 4.39067 52.4882 5.32482C51.0837 5.31157 49.6791 5.295 48.2746 5.28175L48.268 5.28506Z" fill="white"/>
<path id="Vector_6" d="M81.611 9.4935H79.3187C81.3593 6.35319 83.4031 3.21288 85.4436 0.0725648C87.6167 3.24932 89.7897 6.42607 91.9628 9.60282H88.9815C88.5078 8.87406 88.0308 8.14529 87.5571 7.41652C86.6726 7.24758 85.7881 7.07864 84.9037 6.91302C85.5463 6.66126 86.1923 6.4095 86.8349 6.15444C86.3645 5.33623 85.8975 4.51803 85.4271 3.69982C84.1551 5.63105 82.883 7.55897 81.611 9.49019V9.4935Z" fill="white"/>
<path id="Vector_7" d="M94.3695 0H96.9931V9.30831H94.2834C94.3132 6.20443 94.3397 3.10056 94.3695 0Z" fill="white"/>
</g>
</svg>
